<svg width="10mm" height="10mm" viewBox="0 0 10 10" xmlns="http://www.w3.org/2000/svg"><path d="M4.982.218a1 1 0 00-.986 1.015v.371a3.551 3.551 0 00-.694.29l-.263-.264a1 1 0 00-.718-.302 1 1 0 00-.697 1.715l.26.26a3.551 3.551 0 00-.29.699h-.368a1 1 0 100 1.998h.366a3.551 3.551 0 00.292.702l-.259.259A1 1 0 103.04 8.373l.253-.253a3.551 3.551 0 00.703.289v.36a1 1 0 102 0v-.36a3.551 3.551 0 00.703-.292l.256.257A1 1 0 108.37 6.96l-.256-.256a3.551 3.551 0 00.289-.702h.365a1 1 0 100-1.998H8.4a3.551 3.551 0 00-.292-.697l.263-.263a1 1 0 00-.726-1.714 1 1 0 00-.687.302l-.26.261A3.551 3.551 0 006 1.608v-.371A1 1 0 004.985.222zm.014 2.139a2.65 2.65 0 012.65 2.65 2.65 2.65 0 01-2.65 2.65 2.65 2.65 0 01-2.65-2.65 2.65 2.65 0 012.65-2.65z" color="#000" fill="#fff" style="font-feature-settings:normal;font-variant-alternates:normal;font-variant-caps:normal;font-variant-ligatures:normal;font-variant-numeric:normal;font-variant-position:normal;isolation:auto;mix-blend-mode:normal;shape-padding:0;text-decoration-color:#000;text-decoration-line:none;text-decoration-style:solid;text-indent:0;text-orientation:mixed;text-transform:none;white-space:normal"/></svg>